# Blender v2.82 (sub 7) OBJ File: 'skybox_cg.blend'
# www.blender.org
v 1.004934 0.995041 1.000000
v 0.995041 -1.004934 1.000000
v 1.004934 0.995041 -1.000000
v 0.995041 -1.004934 -1.000000
v -0.995041 1.004934 1.000000
v -1.004934 -0.995041 1.000000
v -0.995041 1.004934 -1.000000
v -1.004934 -0.995041 -1.000000
vt 0.000000 0.514167
vt 0.321667 1.000000
vt 0.321667 0.514167
vt 0.676680 0.000000
vt 1.000000 0.484974
vt 1.000000 0.000000
vt 0.338333 0.000000
vt 0.660000 0.484167
vt 0.660000 0.000000
vt 0.000000 0.000000
vt 0.323422 0.484633
vt 0.323422 0.000000
vt 0.674942 0.513256
vt 1.000000 1.000000
vt 1.000000 0.513256
vt 0.340209 0.516476
vt 0.664804 1.000000
vt 0.664804 0.516476
vt 0.000000 1.000000
vt 0.676680 0.484974
vt 0.338333 0.484167
vt 0.000000 0.484633
vt 0.674942 1.000000
vt 0.340209 1.000000
vn -1.0000 0.0049 0.0000
vn 0.0000 0.0000 1.0000
vn 1.0000 -0.0049 0.0000
vn 0.0000 0.0000 -1.0000
vn -0.0049 -1.0000 0.0000
vn 0.0049 1.0000 0.0000
s off
f 3/1/1 2/2/1 1/3/1
f 7/4/2 4/5/2 3/6/2
f 5/7/3 8/8/3 7/9/3
f 1/10/4 6/11/4 5/12/4
f 1/13/5 7/14/5 3/15/5
f 6/16/6 4/17/6 8/18/6
f 3/1/1 4/19/1 2/2/1
f 7/4/2 8/20/2 4/5/2
f 5/7/3 6/21/3 8/8/3
f 1/10/4 2/22/4 6/11/4
f 1/13/5 5/23/5 7/14/5
f 6/16/6 2/24/6 4/17/6
