# Blender v2.82 (sub 7) OBJ File: 'Bushes.blend'
# www.blender.org
v 0.000000 0.616416 -0.207393
v 0.000000 0.524228 -0.359214
v 0.000000 0.398297 -0.414785
v 0.000000 0.272365 -0.359214
v 0.000000 0.180177 -0.207393
v -0.000000 0.650159 -0.000000
v 0.311066 0.616416 -0.103696
v 0.538783 0.524228 -0.179607
v 0.622133 0.398297 -0.207393
v 0.538783 0.272365 -0.179607
v 0.311066 0.180177 -0.103696
v 0.311066 0.616416 0.103696
v 0.538783 0.524228 0.179607
v 0.622133 0.398297 0.207393
v 0.538783 0.272365 0.179607
v 0.311066 0.180177 0.103696
v -0.000000 0.616416 0.207392
v -0.000000 0.524228 0.359214
v -0.000000 0.398297 0.414785
v -0.000000 0.272365 0.359214
v -0.000000 0.180177 0.207392
v 0.000000 0.146434 -0.000000
v -0.311066 0.616416 0.103696
v -0.538783 0.524228 0.179607
v -0.622133 0.398297 0.207392
v -0.538783 0.272365 0.179607
v -0.311067 0.180177 0.103696
v -0.311066 0.616416 -0.103696
v -0.538783 0.524228 -0.179607
v -0.622133 0.398297 -0.207393
v -0.538783 0.272365 -0.179607
v -0.311066 0.180177 -0.103696
vt 0.666667 0.833333
vt 0.500000 0.666667
vt 0.666667 0.666667
vt 0.666667 0.166667
vt 0.500000 0.333333
vt 0.500000 0.166667
vt 0.500000 0.500000
vt 0.666667 0.500000
vt 0.583333 1.000000
vt 0.500000 0.833333
vt 0.583333 0.000000
vt 0.666667 0.333333
vt 0.333333 0.166667
vt 0.333333 0.500000
vt 0.416667 1.000000
vt 0.333333 0.833333
vt 0.416667 0.000000
vt 0.333333 0.333333
vt 0.333333 0.666667
vt 0.166667 0.333333
vt 0.166667 0.166667
vt 0.166667 0.500000
vt 0.250000 1.000000
vt 0.166667 0.833333
vt 0.250000 0.000000
vt 0.166667 0.666667
vt 0.000000 0.500000
vt 0.083333 1.000000
vt 0.000000 0.833333
vt 0.083333 0.000000
vt 0.000000 0.166667
vt 0.000000 0.333333
vt 0.000000 0.666667
vt 1.000000 0.833333
vt 0.916667 1.000000
vt 0.833333 0.833333
vt 0.916667 0.000000
vt 1.000000 0.166667
vt 0.833333 0.166667
vt 1.000000 0.500000
vt 0.833333 0.333333
vt 1.000000 0.333333
vt 0.833333 0.666667
vt 1.000000 0.666667
vt 0.833333 0.500000
vt 0.750000 0.000000
vt 0.750000 1.000000
vn 0.1705 0.8422 -0.5114
vn 0.1705 -0.8422 -0.5114
vn 0.2917 0.3862 -0.8751
vn 0.0535 0.9856 -0.1604
vn 0.0535 -0.9856 -0.1604
vn 0.2917 -0.3862 -0.8751
vn 0.3753 -0.9269 0.0000
vn 0.8339 0.5519 0.0000
vn 0.1078 0.9942 0.0000
vn 0.1078 -0.9942 -0.0000
vn 0.8339 -0.5519 0.0000
vn 0.3753 0.9269 -0.0000
vn 0.1705 -0.8422 0.5114
vn 0.2917 0.3862 0.8751
vn 0.0535 0.9856 0.1604
vn 0.0535 -0.9856 0.1604
vn 0.2917 -0.3862 0.8751
vn 0.1705 0.8422 0.5114
vn -0.2917 0.3862 0.8751
vn -0.0535 0.9856 0.1604
vn -0.0535 -0.9856 0.1604
vn -0.2917 -0.3862 0.8751
vn -0.1705 0.8422 0.5114
vn -0.1705 -0.8422 0.5114
vn -0.1078 0.9942 0.0000
vn -0.1078 -0.9942 -0.0000
vn -0.8339 -0.5519 -0.0000
vn -0.3753 0.9269 -0.0000
vn -0.3753 -0.9269 -0.0000
vn -0.8339 0.5519 -0.0000
vn -0.0535 -0.9856 -0.1604
vn -0.2917 -0.3862 -0.8751
vn -0.1705 0.8422 -0.5114
vn -0.1705 -0.8422 -0.5114
vn -0.2917 0.3862 -0.8751
vn -0.0535 0.9856 -0.1604
s off
f 1/1/1 8/2/1 2/3/1
f 5/4/2 10/5/2 11/6/2
f 2/3/3 9/7/3 3/8/3
f 1/1/4 6/9/4 7/10/4
f 22/11/5 5/4/5 11/6/5
f 3/8/6 10/5/6 4/12/6
f 10/5/7 16/13/7 11/6/7
f 8/2/8 14/14/8 9/7/8
f 7/10/9 6/15/9 12/16/9
f 22/17/10 11/6/10 16/13/10
f 9/7/11 15/18/11 10/5/11
f 7/10/12 13/19/12 8/2/12
f 16/13/13 20/20/13 21/21/13
f 13/19/14 19/22/14 14/14/14
f 12/16/15 6/23/15 17/24/15
f 22/25/16 16/13/16 21/21/16
f 14/14/17 20/20/17 15/18/17
f 12/16/18 18/26/18 13/19/18
f 18/26/19 25/27/19 19/22/19
f 17/24/20 6/28/20 23/29/20
f 22/30/21 21/21/21 27/31/21
f 19/22/22 26/32/22 20/20/22
f 18/26/23 23/29/23 24/33/23
f 20/20/24 27/31/24 21/21/24
f 23/34/25 6/35/25 28/36/25
f 22/37/26 27/38/26 32/39/26
f 25/40/27 31/41/27 26/42/27
f 23/34/28 29/43/28 24/44/28
f 27/38/29 31/41/29 32/39/29
f 24/44/30 30/45/30 25/40/30
f 22/46/31 32/39/31 5/4/31
f 30/45/32 4/12/32 31/41/32
f 28/36/33 2/3/33 29/43/33
f 32/39/34 4/12/34 5/4/34
f 29/43/35 3/8/35 30/45/35
f 28/36/36 6/47/36 1/1/36
f 1/1/1 7/10/1 8/2/1
f 5/4/2 4/12/2 10/5/2
f 2/3/3 8/2/3 9/7/3
f 3/8/6 9/7/6 10/5/6
f 10/5/7 15/18/7 16/13/7
f 8/2/8 13/19/8 14/14/8
f 9/7/11 14/14/11 15/18/11
f 7/10/12 12/16/12 13/19/12
f 16/13/13 15/18/13 20/20/13
f 13/19/14 18/26/14 19/22/14
f 14/14/17 19/22/17 20/20/17
f 12/16/18 17/24/18 18/26/18
f 18/26/19 24/33/19 25/27/19
f 19/22/22 25/27/22 26/32/22
f 18/26/23 17/24/23 23/29/23
f 20/20/24 26/32/24 27/31/24
f 25/40/27 30/45/27 31/41/27
f 23/34/28 28/36/28 29/43/28
f 27/38/29 26/42/29 31/41/29
f 24/44/30 29/43/30 30/45/30
f 30/45/32 3/8/32 4/12/32
f 28/36/33 1/1/33 2/3/33
f 32/39/34 31/41/34 4/12/34
f 29/43/35 2/3/35 3/8/35
