# Blender v2.82 (sub 7) OBJ File: 'house.blend'
# www.blender.org
v 4.002995 3.024832 0.014340
v 4.002995 5.024832 0.014340
v 3.996996 3.024832 4.014335
v -3.996996 3.024832 0.002342
v -3.996996 5.024832 0.002342
v -4.002995 3.024832 4.002337
v -3.999126 3.024832 0.030106
v -3.999126 5.024832 0.030106
v -3.999127 3.024832 -3.969894
v 3.999127 3.024832 0.030106
v 3.999127 5.024832 0.030106
v 3.999127 3.024832 -3.969894
vt 0.375000 0.000000
vt 0.625000 0.000000
vt 0.375000 0.250000
vt 0.375000 0.500000
vt 0.625000 0.750000
vt 0.375000 0.750000
vt 0.375000 1.000000
vt 0.125000 0.750000
vt 0.125000 0.500000
vt 0.875000 0.750000
vt 0.375000 0.000000
vt 0.625000 0.000000
vt 0.375000 0.250000
vt 0.375000 0.500000
vt 0.625000 0.750000
vt 0.375000 0.750000
vt 0.375000 1.000000
vt 0.125000 0.500000
vt 0.125000 0.750000
vt 0.875000 0.750000
vt 0.625000 1.000000
vt 0.625000 1.000000
vn 1.0000 0.0000 0.0015
vn -1.0000 0.0000 -0.0015
vn 0.0015 0.0000 -1.0000
vn 0.0000 -1.0000 0.0000
vn -0.0007 0.8944 0.4472
vn -1.0000 0.0000 0.0000
vn 1.0000 0.0000 -0.0000
vn -0.0000 0.0000 1.0000
vn 0.0000 0.8944 -0.4472
s off
f 1/1/1 2/2/1 3/3/1
f 6/4/2 5/5/2 4/6/2
f 5/5/3 1/7/3 4/6/3
f 6/4/4 1/8/4 3/9/4
f 5/5/5 3/3/5 2/10/5
f 7/11/6 8/12/6 9/13/6
f 12/14/7 11/15/7 10/16/7
f 11/15/8 7/17/8 10/16/8
f 9/18/4 10/16/4 7/19/4
f 11/15/9 9/13/9 8/20/9
f 5/5/3 2/21/3 1/7/3
f 6/4/4 4/6/4 1/8/4
f 5/5/5 6/4/5 3/3/5
f 11/15/8 8/22/8 7/17/8
f 9/18/4 12/14/4 10/16/4
f 11/15/9 12/14/9 9/13/9
