# Blender v2.82 (sub 7) OBJ File: 'Bird.blend'
# www.blender.org
v -0.352044 0.074136 0.094191
v -0.362567 -0.067225 0.101175
v -0.352046 0.074136 -0.022923
v -0.362569 -0.067225 -0.029907
v 0.372981 -0.067225 -0.029920
v 0.362574 0.074136 0.094178
v 0.362572 0.074136 -0.022935
v 0.372984 -0.067225 0.101162
v 0.505438 0.019627 -0.005961
v 0.505439 -0.019627 0.077199
v 0.505438 -0.019627 -0.005961
v 0.505439 0.019627 0.077199
v 0.627333 0.015055 0.003722
v 0.627334 -0.015055 0.067511
v 0.627333 -0.015055 0.003722
v 0.674254 -0.020199 0.037357
v 0.674254 -0.021842 0.037357
v 0.674253 -0.020199 0.033875
v 0.674253 -0.021842 0.033875
v 0.505438 0.019627 -0.005961
v 0.505439 -0.019627 0.077199
v 0.505439 0.019627 0.077199
v 0.627333 0.015055 0.003722
v 0.627334 -0.015055 0.067511
v 0.627333 -0.015055 0.003722
v 0.627334 0.015055 0.067511
v 0.643151 0.000236 0.018846
v 0.643151 -0.015597 0.052388
v 0.643151 -0.015597 0.018846
v 0.643151 0.000236 0.052388
v -0.442821 0.044569 0.130057
v -0.442825 0.044569 -0.058786
v 0.452437 0.044569 0.130041
v 0.452433 0.044569 -0.058801
v 0.452433 -0.044569 -0.058801
v -0.442825 -0.044569 -0.058786
v -0.442821 -0.044569 0.130057
v 0.452437 -0.044569 0.130041
vt 0.827521 0.564232
vt 0.672479 0.702521
vt 0.672479 0.564232
vt 0.625000 0.750000
vt 0.375000 1.000000
vt 0.375000 0.750000
vt 0.336767 0.554986
vt 0.163233 0.711767
vt 0.163233 0.554986
vt 0.625000 0.516753
vt 0.375000 0.516753
vt 0.375000 0.502944
vt 0.125000 0.516753
vt 0.125000 0.502944
vt 0.625000 0.000000
vt 0.375000 0.233247
vt 0.375000 0.000000
vt 0.875000 0.502944
vt 0.625000 0.502944
vt 0.125000 0.500412
vt 0.625000 0.233247
vt 0.375000 0.247056
vt 0.625000 0.247056
vt 0.375000 0.249588
vt 0.375000 0.249916
vt 0.625000 0.250000
vt 0.375000 0.250000
vt 0.375000 0.500000
vt 0.875000 0.500412
vt 0.625000 0.502944
vt 0.625000 0.500412
vt 0.375000 0.502944
vt 0.375000 0.500412
vt 0.625000 0.500084
vt 0.375000 0.500084
vt 0.125000 0.500412
vt 0.125000 0.500084
vt 0.875000 0.500000
vt 0.625000 0.500000
vt 0.125000 0.500000
vt 0.375000 0.249588
vt 0.625000 0.249916
vt 0.827521 0.702521
vt 0.875000 0.516753
vt 0.875000 0.750000
vt 0.336767 0.711767
vt 0.125000 0.750000
vt 0.625000 1.000000
vt 0.375000 0.500412
vt 0.625000 0.249588
vt 0.875000 0.502944
vt 0.875000 0.500084
vt 0.625000 0.249588
vn 0.0000 1.0000 0.0000
vn -1.0000 0.0000 0.0000
vn 0.0000 -1.0000 0.0000
vn 0.0000 0.0000 1.0000
vn 0.7060 0.0000 0.7082
vn 0.4258 -0.9048 -0.0000
vn -0.0000 0.0000 -1.0000
vn 0.4258 0.9048 -0.0000
vn 0.0375 -0.9993 -0.0000
vn 0.7060 0.0000 -0.7082
vn 0.0792 0.0000 -0.9969
vn 0.4351 0.0000 -0.9004
vn 1.0000 0.0000 -0.0000
vn 0.0375 0.9993 -0.0000
vn 0.0792 0.0000 0.9969
vn 0.6911 0.0000 0.7228
vn -0.0342 -0.9994 0.0000
vn 0.6837 0.7298 -0.0000
vn 0.5491 0.8358 -0.0000
vn -0.1969 -0.9804 0.0000
vn 0.4351 0.0000 0.9004
vn 0.6910 0.0000 -0.7228
vn -0.3097 0.9508 0.0000
vn 0.0000 0.7716 0.6361
vn -0.0000 0.7716 -0.6361
vn 0.3125 0.9499 -0.0000
vn -0.0000 -0.7868 -0.6172
vn -0.2717 -0.9624 0.0000
vn 0.0000 -0.7868 0.6172
vn 0.2742 -0.9617 -0.0000
s off
f 7/1/1 1/2/1 6/3/1
f 31/4/2 36/5/2 37/6/2
f 8/7/3 4/8/3 5/9/3
f 33/10/4 37/6/4 38/11/4
f 10/12/5 33/10/5 38/11/5
f 10/12/6 35/13/6 11/14/6
f 32/15/7 35/16/7 36/17/7
f 9/18/8 33/10/8 12/19/8
f 15/20/9 10/12/9 11/14/9
f 34/21/10 11/22/10 35/16/10
f 9/23/11 15/24/11 11/22/11
f 29/25/12 18/26/12 19/27/12
f 18/26/13 17/28/13 19/27/13
f 23/29/14 22/30/14 26/31/14
f 26/31/15 21/32/15 24/33/15
f 30/34/16 24/33/16 28/35/16
f 28/35/17 25/36/17 29/37/17
f 30/34/18 23/29/18 26/31/18
f 18/38/19 30/34/19 16/39/19
f 19/40/20 28/35/20 29/37/20
f 16/39/21 28/35/21 17/28/21
f 25/41/22 27/42/22 29/25/22
f 3/43/23 31/4/23 1/2/23
f 1/2/24 33/10/24 6/3/24
f 3/43/25 34/44/25 32/45/25
f 6/3/26 34/44/26 7/1/26
f 4/8/27 35/13/27 5/9/27
f 2/46/28 36/47/28 4/8/28
f 2/46/29 38/11/29 37/6/29
f 5/9/30 38/11/30 8/7/30
f 7/1/1 3/43/1 1/2/1
f 31/4/2 32/48/2 36/5/2
f 8/7/3 2/46/3 4/8/3
f 33/10/4 31/4/4 37/6/4
f 10/12/5 12/19/5 33/10/5
f 10/12/6 38/11/6 35/13/6
f 32/15/7 34/21/7 35/16/7
f 9/18/8 34/44/8 33/10/8
f 15/20/9 14/49/9 10/12/9
f 34/21/10 9/23/10 11/22/10
f 9/23/11 13/50/11 15/24/11
f 29/25/12 27/42/12 18/26/12
f 18/26/13 16/39/13 17/28/13
f 23/29/14 20/51/14 22/30/14
f 26/31/15 22/30/15 21/32/15
f 30/34/16 26/31/16 24/33/16
f 28/35/17 24/33/17 25/36/17
f 30/34/18 27/52/18 23/29/18
f 18/38/19 27/52/19 30/34/19
f 19/40/20 17/28/20 28/35/20
f 16/39/21 30/34/21 28/35/21
f 25/41/22 23/53/22 27/42/22
f 3/43/23 32/45/23 31/4/23
f 1/2/24 31/4/24 33/10/24
f 3/43/25 7/1/25 34/44/25
f 6/3/26 33/10/26 34/44/26
f 4/8/27 36/47/27 35/13/27
f 2/46/28 37/6/28 36/47/28
f 2/46/29 8/7/29 38/11/29
f 5/9/30 35/13/30 38/11/30
