# Blender v2.82 (sub 7) OBJ File: 'Bird.blend'
# www.blender.org
v 0.059167 0.006476 0.647390
v 0.059167 -0.006476 0.647390
v -0.191294 0.006476 0.605950
v -0.191294 -0.006476 0.605950
v 0.156800 0.006476 0.057293
v 0.156800 -0.006476 0.057293
v -0.093661 0.006476 0.015854
v -0.093661 -0.006476 0.015854
vt 0.875000 0.500000
vt 0.625000 0.750000
vt 0.625000 0.500000
vt 0.375000 1.000000
vt 0.375000 0.750000
vt 0.625000 0.000000
vt 0.375000 0.250000
vt 0.375000 0.000000
vt 0.375000 0.500000
vt 0.125000 0.750000
vt 0.125000 0.500000
vt 0.625000 0.250000
vt 0.875000 0.750000
vt 0.625000 1.000000
vn 0.0000 1.0000 0.0000
vn -0.9866 0.0000 -0.1632
vn 0.1632 0.0000 -0.9866
vn 0.0000 -1.0000 0.0000
vn -0.1632 0.0000 0.9866
vn 0.9866 0.0000 0.1632
s off
f 5/1/1 3/2/1 1/3/1
f 3/2/2 8/4/2 4/5/2
f 7/6/3 6/7/3 8/8/3
f 2/9/4 8/10/4 6/11/4
f 1/3/5 4/5/5 2/9/5
f 5/12/6 2/9/6 6/7/6
f 5/1/1 7/13/1 3/2/1
f 3/2/2 7/14/2 8/4/2
f 7/6/3 5/12/3 6/7/3
f 2/9/4 4/5/4 8/10/4
f 1/3/5 3/2/5 4/5/5
f 5/12/6 1/3/6 2/9/6
